<svg width="223" height="26" viewBox="0 0 223 26" fill="none" xmlns="http://www.w3.org/2000/svg">
<path d="M0.337891 21.6777V4.32812C0.337891 2.18359 1.51562 1.00586 3.71289 1.00586H14.5938C15.9297 1.00586 16.8789 1.95508 16.8789 3.32617C16.8789 4.67969 15.9297 5.61133 14.5938 5.61133H6.08594V10.7969H14.1719C15.4199 10.7969 16.2637 11.6758 16.2637 12.9414C16.2637 14.2246 15.4199 15.0508 14.1719 15.0508H6.08594V20.3945H14.5234C15.9297 20.3945 16.8789 21.3086 16.8789 22.6973C16.8789 24.1035 15.9297 25 14.5059 25H3.71289C1.51562 25 0.337891 23.8398 0.337891 21.6777ZM39.374 18.7773L43.8564 3.66016C44.4189 1.62109 45.2802 0.794922 46.8271 0.794922C48.497 0.794922 49.6748 1.83203 49.6748 3.36133C49.6748 3.94141 49.4814 4.83789 49.2177 5.66406L44.0322 21.0801C43.1005 23.9629 41.6943 25.1758 39.1806 25.1758C36.6318 25.1758 35.1728 23.9453 34.2588 21.0801L29.0732 5.66406C28.7744 4.78516 28.6162 3.97656 28.6162 3.41406C28.6162 1.86719 29.8115 0.794922 31.4814 0.794922C32.9755 0.794922 33.9423 1.72656 34.5224 3.66016L39.1103 18.7773H39.374ZM62.4843 21.6777V4.32812C62.4843 2.18359 63.662 1.00586 65.8593 1.00586H76.7402C78.0761 1.00586 79.0253 1.95508 79.0253 3.32617C79.0253 4.67969 78.0761 5.61133 76.7402 5.61133H68.2323V10.7969H76.3183C77.5663 10.7969 78.4101 11.6758 78.4101 12.9414C78.4101 14.2246 77.5663 15.0508 76.3183 15.0508H68.2323V20.3945H76.6698C78.0761 20.3945 79.0253 21.3086 79.0253 22.6973C79.0253 24.1035 78.0761 25 76.6523 25H65.8593C63.662 25 62.4843 23.8398 62.4843 21.6777ZM97.5653 22.1523C97.5653 24.0508 96.5985 25.1758 94.8934 25.1758C93.1884 25.1758 92.1864 24.0332 92.1864 22.1523V4.24023C92.1864 1.99023 93.1532 0.830078 95.0692 0.830078C96.3524 0.830078 97.0907 1.46289 98.2509 3.15039L106.337 15.209H106.565V3.85352C106.565 1.95508 107.55 0.830078 109.237 0.830078C110.942 0.830078 111.962 1.95508 111.962 3.85352V21.9414C111.962 24.0508 111.013 25.1758 109.237 25.1758C107.936 25.1758 107.145 24.6309 105.95 22.873L97.7938 10.6562H97.5653V22.1523ZM133.508 25.1758C131.697 25.1758 130.607 24.0156 130.607 22.1172V5.76953H126.055C124.719 5.76953 123.717 4.75 123.717 3.39648C123.717 2.02539 124.719 1.00586 126.055 1.00586H141.014C142.349 1.00586 143.334 2.02539 143.334 3.39648C143.334 4.75 142.349 5.76953 141.014 5.76953H136.426V22.1172C136.426 24.0156 135.318 25.1758 133.508 25.1758ZM157.989 25.1758C156.126 25.1758 155.054 24.0332 155.054 22.0469V3.95898C155.054 1.95508 156.091 0.830078 157.954 0.830078C159.817 0.830078 160.872 1.97266 160.872 3.95898V22.0469C160.872 24.0508 159.835 25.1758 157.989 25.1758ZM178.041 25.1758C176.16 25.1758 175.07 24.0156 175.07 22.0469V4.32812C175.07 2.18359 176.248 1.00586 178.428 1.00586H189.168C190.504 1.00586 191.47 1.99023 191.47 3.36133C191.47 4.71484 190.504 5.66406 189.168 5.66406H180.888V11.4297H188.271C189.66 11.4297 190.574 12.3438 190.574 13.6973C190.574 15.0508 189.642 15.9648 188.271 15.9648H180.888V22.0469C180.888 24.0508 179.869 25.1758 178.041 25.1758ZM212.542 25.1758C210.749 25.1758 209.553 23.9805 209.606 22.2578L209.729 15.9824L203.542 5.78711C202.944 4.78516 202.698 4.09961 202.698 3.41406C202.698 1.84961 203.788 0.794922 205.387 0.794922C206.635 0.794922 207.444 1.41016 208.217 2.9043L212.419 10.9375H212.63L216.954 2.92188C217.692 1.49805 218.624 0.794922 219.784 0.794922C221.26 0.794922 222.385 1.88477 222.385 3.30859C222.385 4.01172 222.104 4.73242 221.419 5.875L215.319 15.9824L215.425 22.2578C215.477 23.9805 214.3 25.1758 212.542 25.1758Z" fill="black"/>
</svg>
