<svg width="46" height="46" viewBox="0 0 46 46" fill="none" xmlns="http://www.w3.org/2000/svg">
<path d="M22.9766 45.7031C10.5547 45.7031 0.265625 35.4141 0.265625 22.9922C0.265625 10.5703 10.5547 0.28125 22.9531 0.28125C35.375 0.28125 45.6875 10.5703 45.6875 22.9922C45.6875 35.4141 35.3984 45.7031 22.9766 45.7031ZM15.5938 32.3438C16.1328 32.3438 16.625 32.1328 17 31.7812L22.9766 25.7344L29 31.7812C29.3516 32.1328 29.8438 32.3438 30.3828 32.3438C31.4609 32.3438 32.3047 31.4766 32.3047 30.3984C32.3047 29.8594 32.1406 29.3906 31.7422 29.0391L25.7188 23.0156L31.7656 16.9688C32.1875 16.5703 32.3281 16.125 32.3281 15.6094C32.3281 14.5547 31.4844 13.7109 30.4297 13.7109C29.9141 13.7109 29.4922 13.875 29.0938 14.2734L22.9766 20.3203L16.9297 14.2969C16.5547 13.9453 16.1328 13.7344 15.5938 13.7344C14.5156 13.7344 13.6719 14.5547 13.6719 15.6328C13.6719 16.1484 13.8828 16.6172 14.2344 16.9922L20.2812 23.0156L14.2344 29.0625C13.8828 29.4141 13.6719 29.8828 13.6719 30.3984C13.6719 31.4766 14.5156 32.3438 15.5938 32.3438Z" fill="#FF8F88"/>
</svg>
