<svg width="46" height="46" viewBox="0 0 46 46" fill="none" xmlns="http://www.w3.org/2000/svg">
<path d="M22.9766 45.7031C10.5547 45.7031 0.265625 35.4141 0.265625 22.9922C0.265625 10.5703 10.5547 0.28125 22.9531 0.28125C35.375 0.28125 45.6875 10.5703 45.6875 22.9922C45.6875 35.4141 35.3984 45.7031 22.9766 45.7031ZM22.9766 41.6953C33.3594 41.6953 41.6797 33.375 41.6797 22.9922C41.6797 12.6094 33.3359 4.28906 22.9531 4.28906C12.5938 4.28906 4.32031 12.6094 4.32031 22.9922C4.32031 33.375 12.6172 41.6953 22.9766 41.6953ZM20.5625 33.5156C19.7891 33.5156 19.2031 33.2109 18.6172 32.4609L13.2734 25.8984C12.9219 25.4766 12.7344 24.9844 12.7344 24.4922C12.7344 23.4609 13.5078 22.6641 14.5156 22.6641C15.1484 22.6641 15.6641 22.8516 16.1797 23.5547L20.4688 29.0859L29.5391 14.5547C29.9609 13.875 30.5234 13.5234 31.1328 13.5234C32.0938 13.5234 33.0078 14.1797 33.0078 15.2109C33.0078 15.7031 32.7266 16.2188 32.4688 16.6641L22.3906 32.4609C21.9453 33.1406 21.3125 33.5156 20.5625 33.5156Z" fill="#DEF14A"/>
</svg>
